# xmcd
#
# Track frame offsets: 
#        150
#        18277
#        49882
#        73288
#        91036
#        104412
#        137133
#        149270
#
# Disc length: 2342 seconds
#
# Revision: 2
# Processed by: cddbd v1.5.2PL0 Copyright (c) Steve Scherf et al.
# Submitted via: ExactAudioCopy v1.0b1
#
DISCID=6f092408
DTITLE=Dave Pike Set - Infra-Red
DYEAR=1970
DGENRE=Jazz
TTITLE0=Suspicious Child, Growing Up
TTITLE1=Attack Of The Green Misers
TTITLE2=But Anyway
TTITLE3=Rabbi Mogen's Hideout
TTITLE4=Raga Jeeva Swara
TTITLE5=Send Me The Yellow Guys
TTITLE6=Soul Eggs
TTITLE7=Infra-Red
EXTD=YEAR: 1970
EXTT0=
EXTT1=
EXTT2=
EXTT3=
EXTT4=
EXTT5=
EXTT6=
EXTT7=
PLAYORDER=
